<?xml version="1.0" encoding="UTF-8" standalone="no"?>
<!DOCTYPE svg PUBLIC "-//W3C//DTD SVG 1.1//EN"
 "http://www.w3.org/Graphics/SVG/1.1/DTD/svg11.dtd">
<!-- Generated by graphviz version 2.26.3 (20100126.1600)
 -->
<!-- Title: obama_network Pages: 1 -->
<svg width="1144pt" height="971pt"
 viewBox="0.00 0.00 1144.00 971.00" xmlns="http://www.w3.org/2000/svg" xmlns:xlink="http://www.w3.org/1999/xlink">
<g id="graph1" class="graph" transform="scale(1 1) rotate(0) translate(4 967)">
<title>obama_network</title>
<polygon fill="white" stroke="white" points="-4,5 -4,-967 1141,-967 1141,5 -4,5"/>
<!-- brentnhunter -->
<g id="node1" class="node"><title>brentnhunter</title>
<ellipse fill="#00ff00" stroke="#00ff00" cx="261.306" cy="-699.475" rx="77.7817" ry="18.3848"/>
<text text-anchor="middle" x="261.306" y="-695.875" font-family="Times Roman,serif" font-size="14.00">brentnhunter</text>
</g>
<!-- xmarginet -->
<g id="node2" class="node"><title>xmarginet</title>
<ellipse fill="#00ff00" stroke="#00ff00" cx="202.596" cy="-183.328" rx="61.0181" ry="18.3848"/>
<text text-anchor="middle" x="202.596" y="-179.728" font-family="Times Roman,serif" font-size="14.00">xmarginet</text>
</g>
<!-- paulinajordanh -->
<g id="node4" class="node"><title>paulinajordanh</title>
<ellipse fill="#00ff00" stroke="#00ff00" cx="361.672" cy="-159.561" rx="84.1457" ry="18.3848"/>
<text text-anchor="middle" x="361.672" y="-155.961" font-family="Times Roman,serif" font-size="14.00">paulinajordanh</text>
</g>
<!-- xmarginet&#45;&gt;paulinajordanh -->
<g id="edge2" class="edge"><title>xmarginet&#45;&gt;paulinajordanh</title>
<path fill="none" stroke="black" d="M257.341,-175.149C265.264,-173.965 273.552,-172.727 281.843,-171.488"/>
<polygon fill="black" stroke="black" points="282.562,-174.919 291.935,-169.98 281.528,-167.996 282.562,-174.919"/>
</g>
<!-- nadinekf -->
<g id="node5" class="node"><title>nadinekf</title>
<ellipse fill="#00ff00" stroke="#00ff00" cx="180.446" cy="-868.902" rx="53.2379" ry="18.3848"/>
<text text-anchor="middle" x="180.446" y="-865.302" font-family="Times Roman,serif" font-size="14.00">nadinekf</text>
</g>
<!-- macnmomorsels -->
<g id="node7" class="node"><title>macnmomorsels</title>
<ellipse fill="#00ff00" stroke="#00ff00" cx="333.822" cy="-845.987" rx="89.8026" ry="18.3848"/>
<text text-anchor="middle" x="333.822" y="-842.387" font-family="Times Roman,serif" font-size="14.00">macnmomorsels</text>
</g>
<!-- nadinekf&#45;&gt;macnmomorsels -->
<g id="edge4" class="edge"><title>nadinekf&#45;&gt;macnmomorsels</title>
<path fill="none" stroke="black" d="M229.397,-861.589C236.328,-860.553 243.609,-859.465 250.966,-858.366"/>
<polygon fill="black" stroke="black" points="251.647,-861.803 261.02,-856.864 250.612,-854.88 251.647,-861.803"/>
</g>
<!-- iquit -->
<g id="node8" class="node"><title>iquit</title>
<ellipse fill="#00ff00" stroke="#00ff00" cx="524.5" cy="-579.561" rx="33.234" ry="18.3848"/>
<text text-anchor="middle" x="524.5" y="-575.961" font-family="Times Roman,serif" font-size="14.00">iquit</text>
</g>
<!-- jnewsreader -->
<g id="node9" class="node"><title>jnewsreader</title>
<ellipse fill="#00ff00" stroke="#00ff00" cx="913.446" cy="-882.902" rx="72.1249" ry="18.3848"/>
<text text-anchor="middle" x="913.446" y="-879.302" font-family="Times Roman,serif" font-size="14.00">jnewsreader</text>
</g>
<!-- globesnews -->
<g id="node11" class="node"><title>globesnews</title>
<ellipse fill="#00ff00" stroke="#00ff00" cx="1066.82" cy="-859.987" rx="68.0887" ry="18.3848"/>
<text text-anchor="middle" x="1066.82" y="-856.387" font-family="Times Roman,serif" font-size="14.00">globesnews</text>
</g>
<!-- jnewsreader&#45;&gt;globesnews -->
<g id="edge6" class="edge"><title>jnewsreader&#45;&gt;globesnews</title>
<path fill="none" stroke="black" d="M975.83,-873.582C982.74,-872.549 989.81,-871.493 996.805,-870.448"/>
<polygon fill="black" stroke="black" points="997.601,-873.868 1006.97,-868.928 996.567,-866.945 997.601,-873.868"/>
</g>
<!-- worldvisionnews -->
<g id="node12" class="node"><title>worldvisionnews</title>
<ellipse fill="#00ff00" stroke="#00ff00" cx="304.107" cy="-255.596" rx="92.839" ry="18.3848"/>
<text text-anchor="middle" x="304.107" y="-251.996" font-family="Times Roman,serif" font-size="14.00">worldvisionnews</text>
</g>
<!-- bboomtown -->
<g id="node13" class="node"><title>bboomtown</title>
<ellipse fill="#00ff00" stroke="#00ff00" cx="126.238" cy="-439.641" rx="68.7979" ry="18.3848"/>
<text text-anchor="middle" x="126.238" y="-436.041" font-family="Times Roman,serif" font-size="14.00">bboomtown</text>
</g>
<!-- ermaxzy -->
<g id="node14" class="node"><title>ermaxzy</title>
<ellipse fill="#00ff00" stroke="#00ff00" cx="97.2381" cy="-747.641" rx="53.9477" ry="18.3848"/>
<text text-anchor="middle" x="97.2381" y="-744.041" font-family="Times Roman,serif" font-size="14.00">ermaxzy</text>
</g>
<!-- dwcbubba -->
<g id="node15" class="node"><title>dwcbubba</title>
<ellipse fill="#00ff00" stroke="#00ff00" cx="462.886" cy="-327.831" rx="60.8112" ry="18.3848"/>
<text text-anchor="middle" x="462.886" y="-324.231" font-family="Times Roman,serif" font-size="14.00">dwcbubba</text>
</g>
<!-- dwcbubba&#45;&gt;dwcbubba -->
<g id="edge10" class="edge"><title>dwcbubba&#45;&gt;dwcbubba</title>
<path fill="none" stroke="black" d="M520.052,-334.399C532.685,-333.782 541.886,-331.593 541.886,-327.831 541.886,-325.186 537.338,-323.318 530.245,-322.228"/>
<polygon fill="black" stroke="black" points="530.338,-318.721 520.052,-321.263 529.678,-325.69 530.338,-318.721"/>
</g>
<!-- davestpty -->
<g id="node17" class="node"><title>davestpty</title>
<ellipse fill="#00ff00" stroke="#00ff00" cx="504.03" cy="-426.437" rx="60.1041" ry="18.3848"/>
<text text-anchor="middle" x="504.03" y="-422.837" font-family="Times Roman,serif" font-size="14.00">davestpty</text>
</g>
<!-- dwcbubba&#45;&gt;davestpty -->
<g id="edge8" class="edge"><title>dwcbubba&#45;&gt;davestpty</title>
<path fill="none" stroke="black" d="M470.625,-346.378C476.774,-361.115 485.47,-381.956 492.448,-398.679"/>
<polygon fill="black" stroke="black" points="489.245,-400.092 496.326,-407.973 495.705,-397.396 489.245,-400.092"/>
</g>
<!-- addthis -->
<g id="node20" class="node"><title>addthis</title>
<ellipse fill="#00ff00" stroke="#00ff00" cx="474.332" cy="-471.657" rx="46.8775" ry="18.3848"/>
<text text-anchor="middle" x="474.332" y="-468.057" font-family="Times Roman,serif" font-size="14.00">addthis</text>
</g>
<!-- dwcbubba&#45;&gt;addthis -->
<g id="edge12" class="edge"><title>dwcbubba&#45;&gt;addthis</title>
<path fill="none" stroke="black" d="M454.471,-346.33C446.543,-366.108 436.678,-398.389 442.433,-426.246 443.873,-433.219 447.141,-439.951 451.06,-445.999"/>
<polygon fill="black" stroke="black" points="448.41,-448.306 457.132,-454.321 454.065,-444.179 448.41,-448.306"/>
</g>
<!-- davestpty&#45;&gt;dwcbubba -->
<g id="edge64" class="edge"><title>davestpty&#45;&gt;dwcbubba</title>
<path fill="none" stroke="black" d="M496.291,-407.89C490.142,-393.153 481.446,-372.312 474.468,-355.588"/>
<polygon fill="black" stroke="black" points="477.671,-354.176 470.59,-346.295 471.211,-356.871 477.671,-354.176"/>
</g>
<!-- davestpty&#45;&gt;addthis -->
<g id="edge66" class="edge"><title>davestpty&#45;&gt;addthis</title>
<path fill="none" stroke="black" d="M492.122,-444.569C492.001,-444.753 491.879,-444.938 491.758,-445.123"/>
<polygon fill="black" stroke="black" points="488.807,-443.241 486.243,-453.521 494.658,-447.083 488.807,-443.241"/>
</g>
<!-- luckykiwi -->
<g id="node21" class="node"><title>luckykiwi</title>
<ellipse fill="#00ff00" stroke="#00ff00" cx="85.2381" cy="-943.641" rx="56.0679" ry="18.3848"/>
<text text-anchor="middle" x="85.2381" y="-940.041" font-family="Times Roman,serif" font-size="14.00">luckykiwi</text>
</g>
<!-- barackobamafr -->
<g id="node22" class="node"><title>barackobamafr</title>
<ellipse fill="#00ff00" stroke="#00ff00" cx="770.238" cy="-789.641" rx="82.939" ry="18.3848"/>
<text text-anchor="middle" x="770.238" y="-786.041" font-family="Times Roman,serif" font-size="14.00">barackobamafr</text>
</g>
<!-- poorconservativ -->
<g id="node23" class="node"><title>poorconservativ</title>
<ellipse fill="#00ff00" stroke="#00ff00" cx="973.238" cy="-537.641" rx="89.8026" ry="18.3848"/>
<text text-anchor="middle" x="973.238" y="-534.041" font-family="Times Roman,serif" font-size="14.00">poorconservativ</text>
</g>
<!-- tokyk -->
<g id="node24" class="node"><title>tokyk</title>
<ellipse fill="#00ff00" stroke="#00ff00" cx="586.238" cy="-341.641" rx="38.8909" ry="18.3848"/>
<text text-anchor="middle" x="586.238" y="-338.041" font-family="Times Roman,serif" font-size="14.00">tokyk</text>
</g>
<!-- madiana67 -->
<g id="node25" class="node"><title>madiana67</title>
<ellipse fill="#00ff00" stroke="#00ff00" cx="934.947" cy="-249.184" rx="65.7609" ry="18.3848"/>
<text text-anchor="middle" x="934.947" y="-245.584" font-family="Times Roman,serif" font-size="14.00">madiana67</text>
</g>
<!-- cogency -->
<g id="node26" class="node"><title>cogency</title>
<ellipse fill="#00ff00" stroke="#00ff00" cx="528.306" cy="-153.475" rx="50.9117" ry="18.3848"/>
<text text-anchor="middle" x="528.306" y="-149.875" font-family="Times Roman,serif" font-size="14.00">cogency</text>
</g>
<!-- riseofthecenter -->
<g id="node28" class="node"><title>riseofthecenter</title>
<ellipse fill="#00ff00" stroke="#00ff00" cx="675.962" cy="-131.414" rx="85.7684" ry="18.3848"/>
<text text-anchor="middle" x="675.962" y="-127.814" font-family="Times Roman,serif" font-size="14.00">riseofthecenter</text>
</g>
<!-- cogency&#45;&gt;riseofthecenter -->
<g id="edge14" class="edge"><title>cogency&#45;&gt;riseofthecenter</title>
<path fill="none" stroke="black" d="M575.838,-146.373C581.979,-145.456 588.4,-144.496 594.896,-143.526"/>
<polygon fill="black" stroke="black" points="595.763,-146.935 605.136,-141.996 594.729,-140.012 595.763,-146.935"/>
</g>
<!-- todosobreobama -->
<g id="node29" class="node"><title>todosobreobama</title>
<ellipse fill="#00ff00" stroke="#00ff00" cx="163.238" cy="-117.641" rx="92.1303" ry="18.3848"/>
<text text-anchor="middle" x="163.238" y="-114.041" font-family="Times Roman,serif" font-size="14.00">todosobreobama</text>
</g>
<!-- barackobama -->
<g id="node30" class="node"><title>barackobama</title>
<ellipse fill="#00ff00" stroke="#00ff00" cx="674.44" cy="-401.232" rx="75.1594" ry="18.3848"/>
<text text-anchor="middle" x="674.44" y="-397.632" font-family="Times Roman,serif" font-size="14.00">barackobama</text>
</g>
<!-- porkchop1950 -->
<g id="node31" class="node"><title>porkchop1950</title>
<ellipse fill="#00ff00" stroke="#00ff00" cx="363.238" cy="-89.6409" rx="82.0244" ry="18.3848"/>
<text text-anchor="middle" x="363.238" y="-86.0409" font-family="Times Roman,serif" font-size="14.00">porkchop1950</text>
</g>
<!-- joefras1963 -->
<g id="node32" class="node"><title>joefras1963</title>
<ellipse fill="#00ff00" stroke="#00ff00" cx="728.238" cy="-61.6409" rx="68.7979" ry="18.3848"/>
<text text-anchor="middle" x="728.238" y="-58.0409" font-family="Times Roman,serif" font-size="14.00">joefras1963</text>
</g>
<!-- realinformatik -->
<g id="node33" class="node"><title>realinformatik</title>
<ellipse fill="#00ff00" stroke="#00ff00" cx="654.927" cy="-213.175" rx="79.9031" ry="18.3848"/>
<text text-anchor="middle" x="654.927" y="-209.575" font-family="Times Roman,serif" font-size="14.00">realinformatik</text>
</g>
<!-- thedailybeast -->
<g id="node35" class="node"><title>thedailybeast</title>
<ellipse fill="#00ff00" stroke="#00ff00" cx="825.342" cy="-187.714" rx="77.7817" ry="18.3848"/>
<text text-anchor="middle" x="825.342" y="-184.114" font-family="Times Roman,serif" font-size="14.00">thedailybeast</text>
</g>
<!-- realinformatik&#45;&gt;thedailybeast -->
<g id="edge16" class="edge"><title>realinformatik&#45;&gt;thedailybeast</title>
<path fill="none" stroke="black" d="M722.279,-203.112C731.134,-201.789 740.259,-200.426 749.246,-199.083"/>
<polygon fill="black" stroke="black" points="749.941,-202.518 759.314,-197.579 748.906,-195.595 749.941,-202.518"/>
</g>
<!-- mylifeofart1 -->
<g id="node36" class="node"><title>mylifeofart1</title>
<ellipse fill="#00ff00" stroke="#00ff00" cx="239.238" cy="-929.641" rx="70.2092" ry="18.3848"/>
<text text-anchor="middle" x="239.238" y="-926.041" font-family="Times Roman,serif" font-size="14.00">mylifeofart1</text>
</g>
<!-- scforfreedom -->
<g id="node37" class="node"><title>scforfreedom</title>
<ellipse fill="#00ff00" stroke="#00ff00" cx="607.306" cy="-881.475" rx="74.2462" ry="18.3848"/>
<text text-anchor="middle" x="607.306" y="-877.875" font-family="Times Roman,serif" font-size="14.00">scforfreedom</text>
</g>
<!-- usagodg20 -->
<g id="node39" class="node"><title>usagodg20</title>
<ellipse fill="#00ff00" stroke="#00ff00" cx="754.962" cy="-859.414" rx="65.0538" ry="18.3848"/>
<text text-anchor="middle" x="754.962" y="-855.814" font-family="Times Roman,serif" font-size="14.00">usagodg20</text>
</g>
<!-- scforfreedom&#45;&gt;usagodg20 -->
<g id="edge18" class="edge"><title>scforfreedom&#45;&gt;usagodg20</title>
<path fill="none" stroke="black" d="M671.212,-871.927C676.436,-871.146 681.728,-870.356 686.98,-869.571"/>
<polygon fill="black" stroke="black" points="687.631,-873.013 697.004,-868.073 686.596,-866.09 687.631,-873.013"/>
</g>
<!-- morning_joe -->
<g id="node40" class="node"><title>morning_joe</title>
<ellipse fill="#00ff00" stroke="#00ff00" cx="618.478" cy="-676.516" rx="70.9184" ry="18.3848"/>
<text text-anchor="middle" x="618.478" y="-672.916" font-family="Times Roman,serif" font-size="14.00">morning_joe</text>
</g>
<!-- addtoany -->
<g id="node41" class="node"><title>addtoany</title>
<ellipse fill="#00ff00" stroke="#00ff00" cx="604.195" cy="-275.841" rx="56.7776" ry="18.3848"/>
<text text-anchor="middle" x="604.195" y="-272.241" font-family="Times Roman,serif" font-size="14.00">addtoany</text>
</g>
<!-- iambikizlle -->
<g id="node42" class="node"><title>iambikizlle</title>
<ellipse fill="#00ff00" stroke="#00ff00" cx="848.057" cy="-123.616" rx="62.9325" ry="18.3848"/>
<text text-anchor="middle" x="848.057" y="-120.016" font-family="Times Roman,serif" font-size="14.00">iambikizlle</text>
</g>
<!-- spiritrider1 -->
<g id="node43" class="node"><title>spiritrider1</title>
<ellipse fill="#00ff00" stroke="#00ff00" cx="164.176" cy="-377.046" rx="65.0538" ry="18.3848"/>
<text text-anchor="middle" x="164.176" y="-373.446" font-family="Times Roman,serif" font-size="14.00">spiritrider1</text>
</g>
<!-- tameryazar -->
<g id="node45" class="node"><title>tameryazar</title>
<ellipse fill="#00ff00" stroke="#00ff00" cx="306.092" cy="-355.843" rx="68.0887" ry="18.3848"/>
<text text-anchor="middle" x="306.092" y="-352.243" font-family="Times Roman,serif" font-size="14.00">tameryazar</text>
</g>
<!-- spiritrider1&#45;&gt;tameryazar -->
<g id="edge20" class="edge"><title>spiritrider1&#45;&gt;tameryazar</title>
<path fill="none" stroke="black" d="M221.899,-368.422C226.513,-367.733 231.204,-367.032 235.891,-366.331"/>
<polygon fill="black" stroke="black" points="236.74,-369.744 246.113,-364.804 235.705,-362.82 236.74,-369.744"/>
</g>
<!-- deprimerard -->
<g id="node46" class="node"><title>deprimerard</title>
<ellipse fill="#00ff00" stroke="#00ff00" cx="114.238" cy="-243.641" rx="70.9184" ry="18.3848"/>
<text text-anchor="middle" x="114.238" y="-240.041" font-family="Times Roman,serif" font-size="14.00">deprimerard</text>
</g>
<!-- jimmynickles -->
<g id="node47" class="node"><title>jimmynickles</title>
<ellipse fill="#00ff00" stroke="#00ff00" cx="760.479" cy="-732.146" rx="73.0388" ry="18.3848"/>
<text text-anchor="middle" x="760.479" y="-728.546" font-family="Times Roman,serif" font-size="14.00">jimmynickles</text>
</g>
<!-- poxnewz -->
<g id="node49" class="node"><title>poxnewz</title>
<ellipse fill="#00ff00" stroke="#00ff00" cx="934.064" cy="-750.486" rx="55.8614" ry="18.3848"/>
<text text-anchor="middle" x="934.064" y="-746.886" font-family="Times Roman,serif" font-size="14.00">poxnewz</text>
</g>
<!-- jimmynickles&#45;&gt;poxnewz -->
<g id="edge22" class="edge"><title>jimmynickles&#45;&gt;poxnewz</title>
<path fill="none" stroke="black" d="M828.088,-739.289C841.971,-740.756 856.542,-742.295 870.284,-743.747"/>
<polygon fill="black" stroke="black" points="870.293,-747.268 880.605,-744.838 871.028,-740.306 870.293,-747.268"/>
</g>
<!-- caryloco -->
<g id="node50" class="node"><title>caryloco</title>
<ellipse fill="#00ff00" stroke="#00ff00" cx="80.2381" cy="-47.6409" rx="51.1176" ry="18.3848"/>
<text text-anchor="middle" x="80.2381" y="-44.0409" font-family="Times Roman,serif" font-size="14.00">caryloco</text>
</g>
<!-- rae4palin -->
<g id="node51" class="node"><title>rae4palin</title>
<ellipse fill="#00ff00" stroke="#00ff00" cx="884.238" cy="-33.6409" rx="56.7776" ry="18.3848"/>
<text text-anchor="middle" x="884.238" y="-30.0409" font-family="Times Roman,serif" font-size="14.00">rae4palin</text>
</g>
<!-- douglasrickard -->
<g id="node52" class="node"><title>douglasrickard</title>
<ellipse fill="#00ff00" stroke="#00ff00" cx="376.308" cy="-620.756" rx="82.0244" ry="18.3848"/>
<text text-anchor="middle" x="376.308" y="-617.156" font-family="Times Roman,serif" font-size="14.00">douglasrickard</text>
</g>
<!-- douglasrickard&#45;&gt;addthis -->
<g id="edge24" class="edge"><title>douglasrickard&#45;&gt;addthis</title>
<path fill="none" stroke="black" d="M373.829,-602.261C371.91,-580.573 371.89,-544.421 388.389,-519.442 397.818,-505.168 413.032,-494.747 428.059,-487.35"/>
<polygon fill="black" stroke="black" points="429.685,-490.455 437.337,-483.128 426.786,-484.084 429.685,-490.455"/>
</g>
<!-- julesg24 -->
<g id="node54" class="node"><title>julesg24</title>
<ellipse fill="#00ff00" stroke="#00ff00" cx="980.533" cy="-705.699" rx="51.8276" ry="18.3848"/>
<text text-anchor="middle" x="980.533" y="-702.099" font-family="Times Roman,serif" font-size="14.00">julesg24</text>
</g>
<!-- julesg24&#45;&gt;poxnewz -->
<g id="edge26" class="edge"><title>julesg24&#45;&gt;poxnewz</title>
<path fill="none" stroke="black" d="M962.434,-723.143C961.618,-723.929 960.794,-724.724 959.965,-725.523"/>
<polygon fill="black" stroke="black" points="957.268,-723.261 952.496,-732.721 962.126,-728.301 957.268,-723.261"/>
</g>
<!-- ranton1 -->
<g id="node56" class="node"><title>ranton1</title>
<ellipse fill="#00ff00" stroke="#00ff00" cx="149.609" cy="-511.441" rx="50.9117" ry="18.3848"/>
<text text-anchor="middle" x="149.609" y="-507.841" font-family="Times Roman,serif" font-size="14.00">ranton1</text>
</g>
<!-- ezkool -->
<g id="node58" class="node"><title>ezkool</title>
<ellipse fill="#00ff00" stroke="#00ff00" cx="256.66" cy="-495.447" rx="43.1335" ry="18.3848"/>
<text text-anchor="middle" x="256.66" y="-491.847" font-family="Times Roman,serif" font-size="14.00">ezkool</text>
</g>
<!-- ranton1&#45;&gt;ezkool -->
<g id="edge28" class="edge"><title>ranton1&#45;&gt;ezkool</title>
<path fill="none" stroke="black" d="M196.874,-504.38C199.868,-503.933 202.887,-503.481 205.895,-503.032"/>
<polygon fill="black" stroke="black" points="206.648,-506.458 216.021,-501.519 205.614,-499.535 206.648,-506.458"/>
</g>
<!-- lindend -->
<g id="node59" class="node"><title>lindend</title>
<ellipse fill="#00ff00" stroke="#00ff00" cx="1000.24" cy="-313.641" rx="46.8775" ry="18.3848"/>
<text text-anchor="middle" x="1000.24" y="-310.041" font-family="Times Roman,serif" font-size="14.00">lindend</text>
</g>
<!-- guestcentric -->
<g id="node60" class="node"><title>guestcentric</title>
<ellipse fill="#00ff00" stroke="#00ff00" cx="636.649" cy="-504.631" rx="70.9184" ry="18.3848"/>
<text text-anchor="middle" x="636.649" y="-501.031" font-family="Times Roman,serif" font-size="14.00">guestcentric</text>
</g>
<!-- guestcentric&#45;&gt;addthis -->
<g id="edge30" class="edge"><title>guestcentric&#45;&gt;addthis</title>
<path fill="none" stroke="black" d="M580.334,-493.191C562.729,-489.614 543.398,-485.688 526.12,-482.178"/>
<polygon fill="black" stroke="black" points="526.71,-478.726 516.213,-480.165 525.316,-485.586 526.71,-478.726"/>
</g>
<!-- a_o_petrosyan -->
<g id="node62" class="node"><title>a_o_petrosyan</title>
<ellipse fill="#00ff00" stroke="#00ff00" cx="471.989" cy="-519.506" rx="82.2301" ry="18.3848"/>
<text text-anchor="middle" x="471.989" y="-515.906" font-family="Times Roman,serif" font-size="14.00">a_o_petrosyan</text>
</g>
<!-- a_o_petrosyan&#45;&gt;addthis -->
<g id="edge32" class="edge"><title>a_o_petrosyan&#45;&gt;addthis</title>
<path fill="none" stroke="black" d="M472.901,-500.869C472.907,-500.761 472.912,-500.653 472.917,-500.544"/>
<polygon fill="black" stroke="black" points="476.425,-500.481 473.418,-490.322 469.433,-500.138 476.425,-500.481"/>
</g>
<!-- targetimpresa -->
<g id="node64" class="node"><title>targetimpresa</title>
<ellipse fill="#00ff00" stroke="#00ff00" cx="304.552" cy="-432.193" rx="79.9031" ry="18.3848"/>
<text text-anchor="middle" x="304.552" y="-428.593" font-family="Times Roman,serif" font-size="14.00">targetimpresa</text>
</g>
<!-- targetimpresa&#45;&gt;addthis -->
<g id="edge34" class="edge"><title>targetimpresa&#45;&gt;addthis</title>
<path fill="none" stroke="black" d="M361.086,-445.334C381.294,-450.031 403.923,-455.291 423.61,-459.867"/>
<polygon fill="black" stroke="black" points="423.075,-463.336 433.608,-462.191 424.66,-456.518 423.075,-463.336"/>
</g>
<!-- startnz -->
<g id="node66" class="node"><title>startnz</title>
<ellipse fill="#00ff00" stroke="#00ff00" cx="1000.24" cy="-453.641" rx="46.8775" ry="18.3848"/>
<text text-anchor="middle" x="1000.24" y="-450.041" font-family="Times Roman,serif" font-size="14.00">startnz</text>
</g>
<!-- tigerfists88 -->
<g id="node67" class="node"><title>tigerfists88</title>
<ellipse fill="#00ff00" stroke="#00ff00" cx="841.954" cy="-431.748" rx="67.1751" ry="18.3848"/>
<text text-anchor="middle" x="841.954" y="-428.148" font-family="Times Roman,serif" font-size="14.00">tigerfists88</text>
</g>
<!-- teddy_jerk -->
<g id="node68" class="node"><title>teddy_jerk</title>
<ellipse fill="#00ff00" stroke="#00ff00" cx="843.069" cy="-383.372" rx="62.9325" ry="18.3848"/>
<text text-anchor="middle" x="843.069" y="-379.772" font-family="Times Roman,serif" font-size="14.00">teddy_jerk</text>
</g>
<!-- teddy_jerk&#45;&gt;tigerfists88 -->
<g id="edge36" class="edge"><title>teddy_jerk&#45;&gt;tigerfists88</title>
<path fill="none" stroke="black" d="M842.641,-401.937C842.634,-402.277 842.626,-402.618 842.618,-402.961"/>
<polygon fill="black" stroke="black" points="839.118,-402.915 842.387,-412.993 846.116,-403.076 839.118,-402.915"/>
</g>
<!-- drewmakaveli -->
<g id="node70" class="node"><title>drewmakaveli</title>
<ellipse fill="#00ff00" stroke="#00ff00" cx="850.277" cy="-479.358" rx="79.9031" ry="18.3848"/>
<text text-anchor="middle" x="850.277" y="-475.758" font-family="Times Roman,serif" font-size="14.00">drewmakaveli</text>
</g>
<!-- drewmakaveli&#45;&gt;tigerfists88 -->
<g id="edge38" class="edge"><title>drewmakaveli&#45;&gt;tigerfists88</title>
<path fill="none" stroke="black" d="M847.035,-460.815C847.017,-460.707 846.998,-460.599 846.979,-460.491"/>
<polygon fill="black" stroke="black" points="850.371,-459.567 845.201,-450.32 843.475,-460.773 850.371,-459.567"/>
</g>
<!-- cineversitytv -->
<g id="node72" class="node"><title>cineversitytv</title>
<ellipse fill="#00ff00" stroke="#00ff00" cx="132.238" cy="-313.641" rx="74.9533" ry="18.3848"/>
<text text-anchor="middle" x="132.238" y="-310.041" font-family="Times Roman,serif" font-size="14.00">cineversitytv</text>
</g>
<!-- stephfont -->
<g id="node73" class="node"><title>stephfont</title>
<ellipse fill="#00ff00" stroke="#00ff00" cx="759.238" cy="-915.641" rx="58.1882" ry="18.3848"/>
<text text-anchor="middle" x="759.238" y="-912.041" font-family="Times Roman,serif" font-size="14.00">stephfont</text>
</g>
<!-- eanewsfeed -->
<g id="node74" class="node"><title>eanewsfeed</title>
<ellipse fill="#00ff00" stroke="#00ff00" cx="995.238" cy="-943.641" rx="70.0036" ry="18.3848"/>
<text text-anchor="middle" x="995.238" y="-940.041" font-family="Times Roman,serif" font-size="14.00">eanewsfeed</text>
</g>
<!-- islamnz -->
<g id="node75" class="node"><title>islamnz</title>
<ellipse fill="#00ff00" stroke="#00ff00" cx="50.2381" cy="-873.641" rx="48.7904" ry="18.3848"/>
<text text-anchor="middle" x="50.2381" y="-870.041" font-family="Times Roman,serif" font-size="14.00">islamnz</text>
</g>
<!-- kevinmbove -->
<g id="node76" class="node"><title>kevinmbove</title>
<ellipse fill="#00ff00" stroke="#00ff00" cx="480.162" cy="-229.293" rx="70.0036" ry="18.3848"/>
<text text-anchor="middle" x="480.162" y="-225.693" font-family="Times Roman,serif" font-size="14.00">kevinmbove</text>
</g>
<!-- kevinmbove&#45;&gt;worldvisionnews -->
<g id="edge40" class="edge"><title>kevinmbove&#45;&gt;worldvisionnews</title>
<path fill="none" stroke="black" d="M419.08,-238.419C409.323,-239.876 399.076,-241.407 388.888,-242.929"/>
<polygon fill="black" stroke="black" points="388.112,-239.506 378.739,-244.446 389.146,-246.43 388.112,-239.506"/>
</g>
<!-- cappymar -->
<g id="node78" class="node"><title>cappymar</title>
<ellipse fill="#00ff00" stroke="#00ff00" cx="938.214" cy="-798.939" rx="58.1882" ry="18.3848"/>
<text text-anchor="middle" x="938.214" y="-795.339" font-family="Times Roman,serif" font-size="14.00">cappymar</text>
</g>
<!-- cappymar&#45;&gt;poxnewz -->
<g id="edge42" class="edge"><title>cappymar&#45;&gt;poxnewz</title>
<path fill="none" stroke="black" d="M936.622,-780.344C936.593,-780.004 936.563,-779.662 936.534,-779.319"/>
<polygon fill="black" stroke="black" points="940.014,-778.936 935.673,-769.271 933.039,-779.533 940.014,-778.936"/>
</g>
<!-- ihatetonyy -->
<g id="node80" class="node"><title>ihatetonyy</title>
<ellipse fill="#00ff00" stroke="#00ff00" cx="430.349" cy="-733.927" rx="65.0538" ry="18.3848"/>
<text text-anchor="middle" x="430.349" y="-730.327" font-family="Times Roman,serif" font-size="14.00">ihatetonyy</text>
</g>
<!-- france24 -->
<g id="node82" class="node"><title>france24</title>
<ellipse fill="#00ff00" stroke="#00ff00" cx="599.759" cy="-734.8" rx="53.9477" ry="18.3848"/>
<text text-anchor="middle" x="599.759" y="-731.2" font-family="Times Roman,serif" font-size="14.00">france24</text>
</g>
<!-- ihatetonyy&#45;&gt;france24 -->
<g id="edge44" class="edge"><title>ihatetonyy&#45;&gt;france24</title>
<path fill="none" stroke="black" d="M495.363,-734.262C508.468,-734.33 522.24,-734.4 535.325,-734.468"/>
<polygon fill="black" stroke="black" points="535.629,-737.969 545.647,-734.521 535.665,-730.97 535.629,-737.969"/>
</g>
<!-- tricianc1 -->
<g id="node83" class="node"><title>tricianc1</title>
<ellipse fill="#00ff00" stroke="#00ff00" cx="152.176" cy="-573.046" rx="53.2379" ry="18.3848"/>
<text text-anchor="middle" x="152.176" y="-569.446" font-family="Times Roman,serif" font-size="14.00">tricianc1</text>
</g>
<!-- tlot -->
<g id="node84" class="node"><title>tlot</title>
<ellipse fill="#00ff00" stroke="#00ff00" cx="900.579" cy="-324.642" rx="28.9914" ry="18.3848"/>
<text text-anchor="middle" x="900.579" y="-321.042" font-family="Times Roman,serif" font-size="14.00">tlot</text>
</g>
<!-- social_msi -->
<g id="node85" class="node"><title>social_msi</title>
<ellipse fill="#00ff00" stroke="#00ff00" cx="408.962" cy="-677.414" rx="60.1041" ry="18.3848"/>
<text text-anchor="middle" x="408.962" y="-673.814" font-family="Times Roman,serif" font-size="14.00">social_msi</text>
</g>
<!-- social_msi&#45;&gt;brentnhunter -->
<g id="edge46" class="edge"><title>social_msi&#45;&gt;brentnhunter</title>
<path fill="none" stroke="black" d="M354.819,-685.503C349.124,-686.354 343.261,-687.23 337.379,-688.109"/>
<polygon fill="black" stroke="black" points="336.861,-684.647 327.488,-689.587 337.896,-691.571 336.861,-684.647"/>
</g>
<!-- akury32 -->
<g id="node87" class="node"><title>akury32</title>
<ellipse fill="#00ff00" stroke="#00ff00" cx="1065.32" cy="-229.705" rx="51.8276" ry="18.3848"/>
<text text-anchor="middle" x="1065.32" y="-226.105" font-family="Times Roman,serif" font-size="14.00">akury32</text>
</g>
<!-- akury32&#45;&gt;madiana67 -->
<g id="edge48" class="edge"><title>akury32&#45;&gt;madiana67</title>
<path fill="none" stroke="black" d="M1017.15,-236.903C1012.7,-237.567 1008.14,-238.248 1003.56,-238.933"/>
<polygon fill="black" stroke="black" points="1002.9,-235.492 993.53,-240.431 1003.94,-242.415 1002.9,-235.492"/>
</g>
<!-- tho_hub -->
<g id="node89" class="node"><title>tho_hub</title>
<ellipse fill="#00ff00" stroke="#00ff00" cx="207.238" cy="-47.6409" rx="51.8276" ry="18.3848"/>
<text text-anchor="middle" x="207.238" y="-44.0409" font-family="Times Roman,serif" font-size="14.00">tho_hub</text>
</g>
<!-- smaxxmahaffey -->
<g id="node90" class="node"><title>smaxxmahaffey</title>
<ellipse fill="#00ff00" stroke="#00ff00" cx="831.49" cy="-658.023" rx="87.889" ry="18.3848"/>
<text text-anchor="middle" x="831.49" y="-654.423" font-family="Times Roman,serif" font-size="14.00">smaxxmahaffey</text>
</g>
<!-- ekomamus -->
<g id="node91" class="node"><title>ekomamus</title>
<ellipse fill="#00ff00" stroke="#00ff00" cx="984.212" cy="-103.273" rx="63.1385" ry="18.3848"/>
<text text-anchor="middle" x="984.212" y="-99.6733" font-family="Times Roman,serif" font-size="14.00">ekomamus</text>
</g>
<!-- ekomamus&#45;&gt;iambikizlle -->
<g id="edge50" class="edge"><title>ekomamus&#45;&gt;iambikizlle</title>
<path fill="none" stroke="black" d="M928.046,-111.665C923.557,-112.335 918.997,-113.017 914.447,-113.697"/>
<polygon fill="black" stroke="black" points="913.906,-110.238 904.533,-115.178 914.94,-117.162 913.906,-110.238"/>
</g>
<!-- hujum -->
<g id="node93" class="node"><title>hujum</title>
<ellipse fill="#00ff00" stroke="#00ff00" cx="323.238" cy="-19.6409" rx="41.9273" ry="18.3848"/>
<text text-anchor="middle" x="323.238" y="-16.0409" font-family="Times Roman,serif" font-size="14.00">hujum</text>
</g>
<!-- angelrose7044 -->
<g id="node94" class="node"><title>angelrose7044</title>
<ellipse fill="#00ff00" stroke="#00ff00" cx="757.237" cy="-271.787" rx="84.1457" ry="18.3848"/>
<text text-anchor="middle" x="757.237" y="-268.187" font-family="Times Roman,serif" font-size="14.00">angelrose7044</text>
</g>
<!-- angelrose7044&#45;&gt;addtoany -->
<g id="edge54" class="edge"><title>angelrose7044&#45;&gt;addtoany</title>
<path fill="none" stroke="black" d="M673.551,-274.004C672.766,-274.024 671.982,-274.045 671.2,-274.066"/>
<polygon fill="black" stroke="black" points="671.031,-270.569 661.128,-274.333 671.217,-277.567 671.031,-270.569"/>
</g>
<!-- angelrose7044&#45;&gt;tlot -->
<g id="edge52" class="edge"><title>angelrose7044&#45;&gt;tlot</title>
<path fill="none" stroke="black" d="M800.633,-287.788C821.499,-295.482 846.172,-304.58 865.783,-311.811"/>
<polygon fill="black" stroke="black" points="864.653,-315.125 875.246,-315.301 867.074,-308.557 864.653,-315.125"/>
</g>
<!-- lakeisheartyou -->
<g id="node97" class="node"><title>lakeisheartyou</title>
<ellipse fill="#00ff00" stroke="#00ff00" cx="672.299" cy="-448.695" rx="82.939" ry="18.3848"/>
<text text-anchor="middle" x="672.299" y="-445.095" font-family="Times Roman,serif" font-size="14.00">lakeisheartyou</text>
</g>
<!-- lakeisheartyou&#45;&gt;barackobama -->
<g id="edge58" class="edge"><title>lakeisheartyou&#45;&gt;barackobama</title>
<path fill="none" stroke="black" d="M673.145,-429.936C673.15,-429.832 673.155,-429.729 673.159,-429.625"/>
<polygon fill="black" stroke="black" points="676.646,-430.002 673.6,-419.854 669.653,-429.686 676.646,-430.002"/>
</g>
<!-- lakeisheartyou&#45;&gt;tigerfists88 -->
<g id="edge56" class="edge"><title>lakeisheartyou&#45;&gt;tigerfists88</title>
<path fill="none" stroke="black" d="M748.195,-441.114C754.911,-440.443 761.703,-439.764 768.399,-439.096"/>
<polygon fill="black" stroke="black" points="769.216,-442.531 778.819,-438.055 768.52,-435.566 769.216,-442.531"/>
</g>
<!-- darebat -->
<g id="node100" class="node"><title>darebat</title>
<ellipse fill="#00ff00" stroke="#00ff00" cx="619.769" cy="-565.328" rx="48.9975" ry="18.3848"/>
<text text-anchor="middle" x="619.769" y="-561.728" font-family="Times Roman,serif" font-size="14.00">darebat</text>
</g>
<!-- darebat&#45;&gt;iquit -->
<g id="edge60" class="edge"><title>darebat&#45;&gt;iquit</title>
<path fill="none" stroke="black" d="M574.088,-572.153C571.589,-572.526 569.084,-572.9 566.599,-573.271"/>
<polygon fill="black" stroke="black" points="565.942,-569.831 556.569,-574.77 566.976,-576.754 565.942,-569.831"/>
</g>
<!-- mtgrove -->
<g id="node102" class="node"><title>mtgrove</title>
<ellipse fill="#00ff00" stroke="#00ff00" cx="991.238" cy="-159.641" rx="51.8276" ry="18.3848"/>
<text text-anchor="middle" x="991.238" y="-156.041" font-family="Times Roman,serif" font-size="14.00">mtgrove</text>
</g>
<!-- ba7ari -->
<g id="node103" class="node"><title>ba7ari</title>
<ellipse fill="#00ff00" stroke="#00ff00" cx="169.678" cy="-805.879" rx="41.9273" ry="18.3848"/>
<text text-anchor="middle" x="169.678" y="-802.279" font-family="Times Roman,serif" font-size="14.00">ba7ari</text>
</g>
<!-- ntammam -->
<g id="node105" class="node"><title>ntammam</title>
<ellipse fill="#00ff00" stroke="#00ff00" cx="282.591" cy="-789.01" rx="60.8112" ry="18.3848"/>
<text text-anchor="middle" x="282.591" y="-785.41" font-family="Times Roman,serif" font-size="14.00">ntammam</text>
</g>
<!-- ba7ari&#45;&gt;ntammam -->
<g id="edge62" class="edge"><title>ba7ari&#45;&gt;ntammam</title>
<path fill="none" stroke="black" d="M209.487,-799.932C212.134,-799.536 214.834,-799.133 217.562,-798.725"/>
<polygon fill="black" stroke="black" points="218.139,-802.178 227.512,-797.239 217.104,-795.255 218.139,-802.178"/>
</g>
<!-- imstillhip -->
<g id="node106" class="node"><title>imstillhip</title>
<ellipse fill="#00ff00" stroke="#00ff00" cx="994.238" cy="-383.641" rx="55.1543" ry="18.3848"/>
<text text-anchor="middle" x="994.238" y="-380.041" font-family="Times Roman,serif" font-size="14.00">imstillhip</text>
</g>
<!-- morningmika -->
<g id="node107" class="node"><title>morningmika</title>
<ellipse fill="#00ff00" stroke="#00ff00" cx="778.065" cy="-565.495" rx="75.1594" ry="18.3848"/>
<text text-anchor="middle" x="778.065" y="-561.895" font-family="Times Roman,serif" font-size="14.00">morningmika</text>
</g>
<!-- epaulnet -->
<g id="node108" class="node"><title>epaulnet</title>
<ellipse fill="#00ff00" stroke="#00ff00" cx="993.238" cy="-607.641" rx="53.9477" ry="18.3848"/>
<text text-anchor="middle" x="993.238" y="-604.041" font-family="Times Roman,serif" font-size="14.00">epaulnet</text>
</g>
<!-- ipunditofficial -->
<g id="node109" class="node"><title>ipunditofficial</title>
<ellipse fill="#00ff00" stroke="#00ff00" cx="554.238" cy="-61.6409" rx="77.0746" ry="18.3848"/>
<text text-anchor="middle" x="554.238" y="-58.0409" font-family="Times Roman,serif" font-size="14.00">ipunditofficial</text>
</g>
<!-- obamainthenews -->
<g id="node112" class="node"><title>obamainthenews</title>
<ellipse fill="#00ff00" stroke="#00ff00" cx="180.238" cy="-635.641" rx="94.9596" ry="18.3848"/>
<text text-anchor="middle" x="180.238" y="-632.041" font-family="Times Roman,serif" font-size="14.00">obamainthenews</text>
</g>
<!-- amerycanrebel2 -->
<g id="node113" class="node"><title>amerycanrebel2</title>
<ellipse fill="#00ff00" stroke="#00ff00" cx="745.808" cy="-323.504" rx="90.0096" ry="18.3848"/>
<text text-anchor="middle" x="745.808" y="-319.904" font-family="Times Roman,serif" font-size="14.00">amerycanrebel2</text>
</g>
<!-- amerycanrebel2&#45;&gt;addtoany -->
<g id="edge70" class="edge"><title>amerycanrebel2&#45;&gt;addtoany</title>
<path fill="none" stroke="black" d="M698.653,-307.633C684.27,-302.792 668.418,-297.457 653.874,-292.562"/>
<polygon fill="black" stroke="black" points="654.642,-289.127 644.048,-289.255 652.409,-295.762 654.642,-289.127"/>
</g>
<!-- amerycanrebel2&#45;&gt;tlot -->
<g id="edge68" class="edge"><title>amerycanrebel2&#45;&gt;tlot</title>
<path fill="none" stroke="black" d="M835.839,-324.166C844.617,-324.23 853.172,-324.293 861.035,-324.351"/>
<polygon fill="black" stroke="black" points="861.26,-327.853 871.286,-324.426 861.312,-320.853 861.26,-327.853"/>
</g>
<!-- amerycanrebel2&#45;&gt;angelrose7044 -->
<g id="edge72" class="edge"><title>amerycanrebel2&#45;&gt;angelrose7044</title>
<path fill="none" stroke="black" d="M749.934,-304.833C750.254,-303.386 750.58,-301.907 750.91,-300.415"/>
<polygon fill="black" stroke="black" points="754.338,-301.124 753.078,-290.604 747.503,-299.613 754.338,-301.124"/>
</g>
<!-- luquinhasruffol -->
<g id="node117" class="node"><title>luquinhasruffol</title>
<ellipse fill="#00ff00" stroke="#00ff00" cx="422.238" cy="-915.641" rx="84.8528" ry="18.3848"/>
<text text-anchor="middle" x="422.238" y="-912.041" font-family="Times Roman,serif" font-size="14.00">luquinhasruffol</text>
</g>
<!-- abrushwithitaly -->
<g id="node118" class="node"><title>abrushwithitaly</title>
<ellipse fill="#00ff00" stroke="#00ff00" cx="519.023" cy="-780.695" rx="87.889" ry="18.3848"/>
<text text-anchor="middle" x="519.023" y="-777.095" font-family="Times Roman,serif" font-size="14.00">abrushwithitaly</text>
</g>
<!-- abrushwithitaly&#45;&gt;france24 -->
<g id="edge74" class="edge"><title>abrushwithitaly&#45;&gt;france24</title>
<path fill="none" stroke="black" d="M550.007,-763.082C554.231,-760.681 558.601,-758.197 562.917,-755.743"/>
<polygon fill="black" stroke="black" points="564.671,-758.772 571.635,-750.787 561.212,-752.687 564.671,-758.772"/>
</g>
<!-- dudeman718 -->
<g id="node121" class="node"><title>dudeman718</title>
<ellipse fill="#00ff00" stroke="#00ff00" cx="518.302" cy="-831.135" rx="75.1594" ry="18.3848"/>
<text text-anchor="middle" x="518.302" y="-827.535" font-family="Times Roman,serif" font-size="14.00">dudeman718</text>
</g>
<!-- abrushwithitaly&#45;&gt;dudeman718 -->
<g id="edge76" class="edge"><title>abrushwithitaly&#45;&gt;dudeman718</title>
<path fill="none" stroke="black" d="M518.755,-799.477C518.742,-800.409 518.728,-801.353 518.715,-802.303"/>
<polygon fill="black" stroke="black" points="515.212,-802.457 518.569,-812.506 522.211,-802.557 515.212,-802.457"/>
</g>
<!-- zazzlegifts -->
<g id="node122" class="node"><title>zazzlegifts</title>
<ellipse fill="#00ff00" stroke="#00ff00" cx="611.238" cy="-943.641" rx="63.8479" ry="18.3848"/>
<text text-anchor="middle" x="611.238" y="-940.041" font-family="Times Roman,serif" font-size="14.00">zazzlegifts</text>
</g>
<!-- bigpappabear -->
<g id="node123" class="node"><title>bigpappabear</title>
<ellipse fill="#00ff00" stroke="#00ff00" cx="294.092" cy="-551.843" rx="77.0746" ry="18.3848"/>
<text text-anchor="middle" x="294.092" y="-548.243" font-family="Times Roman,serif" font-size="14.00">bigpappabear</text>
</g>
<!-- bigpappabear&#45;&gt;tricianc1 -->
<g id="edge78" class="edge"><title>bigpappabear&#45;&gt;tricianc1</title>
<path fill="none" stroke="black" d="M228.535,-561.638C222.725,-562.506 216.866,-563.381 211.116,-564.24"/>
<polygon fill="black" stroke="black" points="210.289,-560.825 200.916,-565.764 211.324,-567.748 210.289,-560.825"/>
</g>
<!-- firecaster65 -->
<g id="node125" class="node"><title>firecaster65</title>
<ellipse fill="#00ff00" stroke="#00ff00" cx="794.423" cy="-613.212" rx="70.0036" ry="18.3848"/>
<text text-anchor="middle" x="794.423" y="-609.612" font-family="Times Roman,serif" font-size="14.00">firecaster65</text>
</g>
<!-- firecaster65&#45;&gt;morning_joe -->
<g id="edge82" class="edge"><title>firecaster65&#45;&gt;morning_joe</title>
<path fill="none" stroke="black" d="M752.726,-628.214C727.838,-637.169 696.04,-648.61 669.639,-658.109"/>
<polygon fill="black" stroke="black" points="668.404,-654.833 660.18,-661.512 670.774,-661.42 668.404,-654.833"/>
</g>
<!-- firecaster65&#45;&gt;smaxxmahaffey -->
<g id="edge80" class="edge"><title>firecaster65&#45;&gt;smaxxmahaffey</title>
<path fill="none" stroke="black" d="M809.5,-631.438C809.64,-631.608 809.781,-631.778 809.921,-631.948"/>
<polygon fill="black" stroke="black" points="807.236,-634.193 816.307,-639.667 812.63,-629.731 807.236,-634.193"/>
</g>
<!-- firecaster65&#45;&gt;morningmika -->
<g id="edge84" class="edge"><title>firecaster65&#45;&gt;morningmika</title>
<path fill="none" stroke="black" d="M788.052,-594.627C787.941,-594.303 787.829,-593.978 787.717,-593.651"/>
<polygon fill="black" stroke="black" points="791,-592.433 784.446,-584.108 784.378,-594.703 791,-592.433"/>
</g>
</g>
</svg>
